<?xml version="1.0" standalone="no"?>
<!DOCTYPE svg PUBLIC "-//W3C//DTD SVG 20010904//EN"
 "http://www.w3.org/TR/2001/REC-SVG-20010904/DTD/svg10.dtd">
<svg version="1.0" xmlns="http://www.w3.org/2000/svg"
 width="1016.000000pt" height="531.000000pt" viewBox="0 0 1016.000000 531.000000"
 preserveAspectRatio="xMidYMid meet">

<g transform="translate(0.000000,531.000000) scale(0.100000,-0.100000)"
fill="#000000" stroke="none">
<path d="M2257 4799 c-11 -7 -15 -18 -13 -32 3 -12 8 -47 11 -78 l6 -56 88 -7
c48 -3 134 -18 191 -32 57 -13 109 -22 116 -20 7 3 14 1 16 -4 3 -8 92 -46
208 -89 25 -9 65 -30 90 -45 25 -16 55 -35 68 -43 29 -18 48 -5 69 45 9 21 20
32 33 32 11 0 20 2 20 5 0 5 -19 37 -36 63 -7 10 -45 -12 -40 -23 7 -19 -13
-85 -26 -85 -18 0 -88 43 -88 55 0 6 5 16 12 23 16 16 -15 17 -40 1 -14 -9
-39 -2 -120 32 -71 29 -100 45 -92 53 16 16 12 25 -22 46 -36 22 -65 25 -88
10 -13 -8 -12 -11 5 -25 19 -16 19 -16 -10 -10 -111 26 -168 36 -227 41 -36 4
-71 10 -77 13 -6 4 -14 35 -17 69 -8 69 -11 75 -37 61z"/>
<path d="M1859 4734 c-11 -14 -9 -15 21 -12 18 2 35 9 38 16 6 18 -43 15 -59
-4z"/>
<path d="M7913 4718 c-6 -7 -13 -21 -16 -30 -4 -12 -17 -18 -37 -18 -83 0
-352 -85 -524 -165 l-78 -37 -39 38 -39 38 0 -30 c0 -18 -8 -38 -20 -49 -17
-16 -30 -85 -15 -85 18 0 76 37 81 52 4 14 9 16 19 8 9 -7 36 1 101 31 174 81
364 143 507 164 26 4 49 10 51 14 3 5 306 5 391 -1 76 -4 406 -102 442 -130 7
-6 19 -8 27 -5 9 4 29 -10 50 -34 20 -21 44 -39 53 -39 19 0 168 -103 243
-168 25 -22 60 -46 77 -56 18 -9 47 -32 66 -51 19 -19 44 -35 56 -35 l22 0
-19 28 c-11 15 -29 46 -41 70 -29 57 -55 82 -87 82 l-26 0 31 -31 c17 -17 31
-35 31 -40 0 -12 -50 22 -71 47 -13 16 -124 100 -179 136 -50 32 -69 57 -64
82 4 22 -1 26 -32 35 -20 6 -49 7 -65 4 -19 -4 -56 6 -116 30 -82 33 -167 61
-271 87 -36 9 -42 14 -37 30 8 24 -21 40 -73 40 -47 0 -76 -24 -40 -33 12 -4
20 -8 18 -9 -3 -2 -83 -2 -177 0 -163 3 -173 5 -173 23 0 22 -13 25 -27 7z
m957 -213 c21 -25 1 -31 -22 -7 -18 18 -19 22 -6 22 8 0 21 -7 28 -15z m-1656
-34 c6 -10 -22 -37 -29 -29 -8 7 5 38 15 38 5 0 11 -4 14 -9z"/>
<path d="M2091 4694 c-36 -45 5 -83 59 -54 15 8 18 7 15 -2 -8 -20 -81 -58
-128 -68 -39 -7 -37 -8 29 -9 62 -1 73 2 92 22 52 55 44 129 -15 135 -23 2
-36 -3 -52 -24z m59 -20 c0 -2 -12 -4 -27 -4 -21 0 -24 3 -14 9 13 8 41 5 41
-5z"/>
<path d="M1920 4695 c-10 -12 -8 -18 10 -33 22 -18 22 -18 -60 -36 -46 -10
-119 -31 -162 -47 -90 -33 -118 -36 -118 -13 0 9 -6 14 -12 11 -7 -2 -12 -15
-11 -28 1 -21 -11 -31 -82 -67 -103 -53 -183 -104 -302 -194 l-93 -70 -33 21
c-44 27 -55 26 -50 -3 3 -13 -2 -37 -11 -53 -15 -30 -12 -73 6 -73 19 0 68 45
68 63 0 13 5 17 18 12 13 -4 40 12 88 51 94 78 193 143 308 204 53 29 96 56
96 61 0 5 9 9 19 9 11 0 53 12 93 27 40 14 120 38 178 53 99 25 105 28 108 54
2 16 -4 36 -14 47 -21 23 -28 24 -44 4z m-870 -494 c0 -5 -7 -14 -15 -21 -16
-14 -18 -10 -9 14 6 17 24 22 24 7z"/>
<path d="M5090 4642 c-52 -28 -80 -75 -80 -134 0 -71 19 -104 103 -185 l75
-73 64 0 c56 0 71 4 106 30 78 56 79 160 3 249 -73 87 -123 122 -182 127 -41
4 -62 1 -89 -14z"/>
<path d="M2902 4608 c3 -7 14 -14 26 -16 11 -2 26 -10 32 -18 7 -8 24 -14 38
-14 24 0 25 1 7 20 -10 11 -26 20 -36 20 -10 0 -21 5 -24 10 -9 15 -47 12 -43
-2z"/>
<path d="M7914 4608 c-3 -5 -16 -7 -29 -4 -13 3 -27 0 -34 -8 -9 -11 -7 -15 8
-19 10 -2 25 -1 32 4 8 5 21 6 30 4 9 -3 21 1 28 9 9 11 7 15 -9 19 -11 3 -23
1 -26 -5z"/>
<path d="M7125 4539 c-4 -5 -18 -14 -31 -19 -13 -5 -24 -16 -24 -25 0 -19 14
-19 32 -1 8 7 23 16 35 20 29 9 38 36 13 36 -10 0 -22 -5 -25 -11z"/>
<path d="M7885 4540 c-328 -35 -661 -192 -877 -414 l-46 -48 66 -67 c146 -146
222 -255 292 -423 119 -287 132 -631 33 -926 -34 -102 -109 -250 -171 -337
-56 -79 -130 -165 -141 -165 -9 0 -49 62 -123 189 -27 46 -69 104 -93 129
l-45 46 -53 -17 c-85 -28 -85 -27 -57 -94 36 -88 95 -186 166 -280 35 -46 64
-90 64 -97 0 -16 -115 -96 -214 -150 -344 -186 -759 -207 -1123 -57 -80 33
-213 108 -213 120 0 4 23 37 52 72 200 248 335 592 354 903 11 173 -38 441
-115 620 -85 200 -165 312 -358 505 l-144 144 -50 -49 c-185 -180 -333 -412
-403 -632 -62 -197 -79 -297 -80 -467 -1 -241 36 -423 128 -620 47 -100 158
-275 214 -337 19 -21 32 -44 29 -52 -9 -24 -144 -114 -250 -167 -215 -109
-379 -144 -622 -136 -222 8 -348 39 -540 132 -157 76 -153 72 -112 120 55 65
161 224 206 309 l42 79 -53 54 c-31 32 -82 68 -122 89 l-69 34 -44 -81 c-75
-140 -216 -324 -232 -302 -116 165 -191 344 -232 556 -18 95 -21 133 -16 247
22 477 276 895 695 1140 39 23 72 47 72 54 0 31 -63 137 -109 181 l-52 50 -75
-40 c-242 -129 -497 -388 -623 -633 -267 -521 -207 -1144 156 -1613 l56 -73
-35 -31 c-52 -44 -212 -137 -298 -172 -193 -80 -370 -110 -590 -100 -266 12
-503 102 -720 274 -158 124 -301 357 -362 589 -31 115 -32 126 -32 329 -1 198
1 216 26 312 72 268 183 459 385 661 62 62 113 116 113 119 0 14 -196 203
-211 203 -26 0 -236 -224 -306 -327 -127 -185 -200 -360 -258 -618 -25 -108
-27 -133 -22 -250 7 -140 21 -233 61 -390 65 -257 165 -421 413 -675 238 -245
377 -333 688 -435 28 -9 76 -21 108 -26 32 -5 67 -13 77 -19 11 -6 97 -10 199
-10 155 0 198 4 301 26 237 49 470 154 648 290 l43 33 89 -67 c48 -37 133 -91
188 -120 134 -70 220 -99 427 -144 64 -14 418 -14 511 0 198 30 494 164 685
311 l26 21 74 -56 c171 -129 388 -224 624 -276 76 -16 424 -16 515 1 96 17
208 49 265 76 28 12 86 38 129 56 186 78 418 269 564 464 84 111 185 308 226
438 156 496 54 1044 -260 1399 -24 27 -44 53 -44 58 0 27 218 160 340 208 195
76 223 81 455 89 162 5 321 -6 370 -26 11 -5 58 -21 105 -36 195 -64 332 -154
505 -331 l120 -123 25 20 c90 74 93 79 79 105 -37 70 -313 335 -426 410 -286
190 -650 280 -988 244z m-2585 -770 c105 -165 161 -337 182 -567 25 -274 -41
-581 -169 -784 -61 -96 -182 -259 -193 -259 -23 0 -130 198 -183 340 -53 143
-71 249 -70 430 0 269 64 491 206 720 53 86 146 200 162 200 7 0 36 -36 65
-80z"/>
<path d="M1590 4460 c-8 -5 -23 -11 -32 -14 -10 -3 -18 -10 -18 -16 0 -13 25
-13 48 -1 9 5 25 12 35 15 9 3 17 10 17 16 0 12 -29 12 -50 0z"/>
<path d="M3240 4434 c-14 -4 -65 -112 -57 -120 11 -11 39 12 60 49 43 75 42
83 -3 71z"/>
<path d="M953 4263 c-7 -2 -13 -11 -13 -18 0 -8 -9 -17 -20 -20 -19 -6 -29
-35 -12 -35 13 0 72 56 72 68 0 13 -7 14 -27 5z"/>
<path d="M9140 4183 c1 -16 28 -43 44 -43 20 0 21 14 0 34 -16 16 -44 22 -44
9z"/>
<path d="M2174 3201 c-61 -28 -87 -77 -82 -151 4 -56 8 -63 59 -117 103 -110
123 -123 191 -123 71 0 108 22 138 80 41 80 17 151 -81 247 -90 87 -141 102
-225 64z"/>
<path d="M6746 1520 c-65 -20 -106 -85 -106 -170 0 -49 3 -55 58 -113 31 -34
62 -66 67 -72 25 -27 92 -65 115 -65 37 0 126 45 144 72 22 34 29 80 21 133
-6 41 -16 56 -85 124 -62 62 -88 81 -124 90 -51 12 -50 12 -90 1z"/>
<path d="M7170 1501 c-55 -29 -80 -74 -80 -143 0 -58 1 -59 62 -126 34 -37 84
-82 111 -101 42 -29 54 -32 89 -27 61 10 95 32 124 81 33 57 35 119 6 167 -26
42 -121 132 -161 152 -40 21 -109 20 -151 -3z"/>
</g>
</svg>
